0
SECTION
2
HEADER
9
$INSUNITS
70
4
9
$ACADVER
1
AC1014
9
$HANDSEED
5
FFFF
0
ENDSEC
0
SECTION
2
TABLES
0
TABLE
2
VPORT
5
8
100
AcDbSymbolTable
0
ENDTAB
0
TABLE
2
LTYPE
5
5
100
AcDbSymbolTable
0
LTYPE
5
14
100
AcDbSymbolTableRecord
100
AcDbLinetypeTableRecord
2
BYBLOCK
70
0
0
LTYPE
5
15
100
AcDbSymbolTableRecord
100
AcDbLinetypeTableRecord
2
BYLAYER
70
0
0
ENDTAB
0
TABLE
2
LAYER
5
2
100
AcDbSymbolTable
70
2
0
LAYER
5
50
100
AcDbSymbolTableRecord
100
AcDbLayerTableRecord
2
0
70
0
6
CONTINUOUS
0
ENDTAB
0
TABLE
2
STYLE
5
3
100
AcDbSymbolTable
70
1
0
STYLE
5
11
100
AcDbSymbolTableRecord
100
AcDbTextStyleTableRecord
2
STANDARD
70
0
0
ENDTAB
0
TABLE
2
VIEW
5
6
100
AcDbSymbolTable
70
0
0
ENDTAB
0
TABLE
2
UCS
5
7
100
AcDbSymbolTable
70
0
0
ENDTAB
0
TABLE
2
APPID
5
9
100
AcDbSymbolTable
70
2
0
APPID
5
12
100
AcDbSymbolTableRecord
100
AcDbRegAppTableRecord
2
ACAD
70
0
0
ENDTAB
0
TABLE
2
DIMSTYLE
5
A
100
AcDbSymbolTable
70
1
0
ENDTAB
0
TABLE
2
BLOCK_RECORD
5
1
100
AcDbSymbolTable
70
1
0
BLOCK_RECORD
5
1F
100
AcDbSymbolTableRecord
100
AcDbBlockTableRecord
2
*MODEL_SPACE
0
BLOCK_RECORD
5
1B
100
AcDbSymbolTableRecord
100
AcDbBlockTableRecord
2
*PAPER_SPACE
0
ENDTAB
0
ENDSEC
0
SECTION
2
BLOCKS
0
BLOCK
5
20
100
AcDbEntity
100
AcDbBlockBegin
2
*MODEL_SPACE
0
ENDBLK
5
21
100
AcDbEntity
100
AcDbBlockEnd
0
BLOCK
5
1C
100
AcDbEntity
100
AcDbBlockBegin
2
*PAPER_SPACE
0
ENDBLK
5
1D
100
AcDbEntity
100
AcDbBlockEnd
0
ENDSEC
0
SECTION
2
ENTITIES
0
CIRCLE
5
100
100
AcDbEntity
8
0
100
AcDbCircle
10
40.670000000184899
20
34.25499999999888
30
0
40
1.25
210
0
220
-0
230
1
0
CIRCLE
5
101
100
AcDbEntity
8
0
100
AcDbCircle
10
-15.250000000000011
20
-62.470516134223502
30
0
40
1.5000000000000013
210
0
220
-0
230
1
0
CIRCLE
5
102
100
AcDbEntity
8
0
100
AcDbCircle
10
15.249999999999995
20
-31.970516134223512
30
0
40
1.4999999999999991
210
0
220
-0
230
1
0
CIRCLE
5
103
100
AcDbEntity
8
0
100
AcDbCircle
10
-44.409999999815071
20
34.254999999994595
30
0
40
1.25
210
0
220
-0
230
1
0
CIRCLE
5
104
100
AcDbEntity
8
0
100
AcDbCircle
10
40.670000000186576
20
-0.13500000000114415
30
0
40
1.25
210
0
220
-0
230
1
0
CIRCLE
5
105
100
AcDbEntity
8
0
100
AcDbCircle
10
-15.250000000000007
20
-31.970516134223512
30
0
40
1.4999999999999991
210
0
220
-0
230
1
0
CIRCLE
5
106
100
AcDbEntity
8
0
100
AcDbCircle
10
15.249999999999995
20
-62.470516134223502
30
0
40
1.4999999999999991
210
0
220
-0
230
1
0
CIRCLE
5
107
100
AcDbEntity
8
0
100
AcDbCircle
10
-44.409999999813309
20
-0.13500000000542517
30
0
40
1.25
210
0
220
-0
230
1
0
CIRCLE
5
108
100
AcDbEntity
8
0
100
AcDbCircle
10
-82.17027825246484
20
47.441032268447074
30
0
40
1.5000000000000036
210
6.1629758220391547e-33
220
1.2325951644078309e-32
230
1
0
CIRCLE
5
109
100
AcDbEntity
8
0
100
AcDbCircle
10
82.170278252464882
20
47.44103226844701
30
0
40
1.5000000000000036
210
6.1629758220391547e-33
220
1.2325951644078309e-32
230
1
0
CIRCLE
5
110
100
AcDbEntity
8
0
100
AcDbCircle
10
-7.5131088185085812e-14
20
-94.882064536894092
30
0
40
1.5000000000000002
210
6.1629758220391547e-33
220
4.2168791772922093e-81
230
1
0
LWPOLYLINE
5
111
100
AcDbEntity
8
0
100
AcDbPolyline
90
24
70
1
43
0.0
10
38.250202635693491
20
-33.630770172067926
42
-0.41421356237309392
10
40.080329654615696
20
-40.460897190990096
10
6.495190528383219
20
-98.632064536894092
42
-0.57735026918962495
10
-6.4951905283833611
20
-98.63206453689412
10
-40.080329654615753
20
-40.460897190990124
42
-0.41421356237309442
10
-38.250202635693576
20
-33.630770172067898
42
0.41421356237309531
10
-36.420075616771371
20
-26.800643153145703
10
-41.420075616771364
20
-18.140389115301318
42
0.4142135623730947
10
-48.250202635693554
20
-16.310262096379116
42
-0.4142135623730947
10
-55.080329654615738
20
-14.48013507745693
10
-88.665468780848158
20
43.691032268447074
42
-0.5773502691896254
10
-82.17027825246484
20
54.941032268447081
10
-14.999999999999984
20
54.941032268447046
42
-0.41421356237309437
10
-9.999999999999984
20
49.94103226844706
42
0.41421356237309503
10
-4.9999999999999858
20
44.94103226844706
10
5.0000000000000133
20
44.941032268447046
42
0.4142135623730942
10
10.000000000000014
20
49.941032268447017
42
-0.41421356237309581
10
15.000000000000018
20
54.941032268447039
10
82.170278252464882
20
54.941032268447003
42
-0.5773502691896254
10
88.665468780848173
20
43.691032268447017
10
55.080329654615682
20
-14.480135077456948
42
-0.41421356237309348
10
48.250202635693533
20
-16.31026209637918
42
0.4142135623730947
10
41.420075616771342
20
-18.140389115301367
10
36.420075616771328
20
-26.800643153145746
42
0.41421356237309387
0
ENDSEC
0
SECTION
2
OBJECTS
0
DICTIONARY
5
C
100
AcDbDictionary
3
ACAD_GROUP
350
D
3
ACAD_MLINESTYLE
350
17
0
DICTIONARY
5
D
100
AcDbDictionary
0
DICTIONARY
5
1A
330
C
100
AcDbDictionary
0
DICTIONARY
5
17
100
AcDbDictionary
0
ENDSEC
0
EOF
